<?xml version="1.0" encoding="UTF-8"?> <svg xmlns="http://www.w3.org/2000/svg" id="Слой_1" data-name="Слой 1" viewBox="0 0 34.71 40.22"><title>стрелка</title><path d="M534.87,913.05l.17.21a2.26,2.26,0,0,1,.43,1.47,2.33,2.33,0,0,1-.6,1.68L519.49,932.3a1.9,1.9,0,0,1-2.92,0l-15.29-16.09a2.41,2.41,0,0,1-.52-1.58,3,3,0,0,1,.52-1.79,1.6,1.6,0,0,1,1.38-.74,1.47,1.47,0,0,1,1.2.53L518,927.56l14.09-14.72a1.57,1.57,0,0,1,1.29-.53A1.68,1.68,0,0,1,534.87,913.05Zm0,19.35.17.21a2.26,2.26,0,0,1,.43,1.47,2.33,2.33,0,0,1-.6,1.68l-15.38,15.88a1.9,1.9,0,0,1-2.92,0l-15.29-16.09a2.41,2.41,0,0,1-.52-1.58,3,3,0,0,1,.52-1.79,1.6,1.6,0,0,1,1.38-.74,1.47,1.47,0,0,1,1.2.53L518,946.91l14.09-14.72a1.57,1.57,0,0,1,1.29-.53A1.68,1.68,0,0,1,534.87,932.4Z" transform="translate(-500.75 -912.11)"></path></svg> 