<?xml version="1.0" encoding="UTF-8"?> <svg xmlns="http://www.w3.org/2000/svg" id="Слой_1" data-name="Слой 1" viewBox="0 0 418.03 418.03"><defs><style>.cls-1{fill:none;stroke-width:8px;}.cls-1,.cls-2{stroke:#000;stroke-miterlimit:10;}.cls-2{stroke-width:3px;}</style></defs><title>замочек 2 закрыто</title><circle class="cls-1" cx="209.02" cy="209.02" r="205.02"></circle><path class="cls-2" d="M539.74,971.13A14.11,14.11,0,0,0,536,998.84v26.76a3.75,3.75,0,1,0,7.5,0V998.84a14.11,14.11,0,0,0-3.75-27.71Z" transform="translate(-330.72 -751)"></path><path class="cls-2" d="M593.22,920.83V864.61A51.23,51.23,0,0,0,542,813.43h-4.61a51.23,51.23,0,0,0-51.18,51.18v56.22h-28v163h163v-163ZM491.37,864.61a46.12,46.12,0,0,1,46.07-46.07H542a46.12,46.12,0,0,1,46.07,46.07v56.22H491.37ZM616.12,1078.7H463.36V925.94H616.12Z" transform="translate(-330.72 -751)"></path></svg> 