<svg xmlns="http://www.w3.org/2000/svg" data-name="Слой 1" viewBox="0.02 33.31 272.4 61.95"><path d="M81.92 60.87c-4.46 2.94-18.76 14-22.63 11.69-2.52-1.51 2.44-7.4 4.63-10.26l.67-.84-.67.17a19.15 19.15 0 0 1-4.29.76c-.34 0-.34 0-.93.59a21.82 21.82 0 0 0-3.2 4.37c-.08.08 0 .17.08.17s.42.17.42.25-.42.34-.67.34a1.12 1.12 0 0 1-.84-.5c-.25-.76.93-3 3.53-6l1.56-1.69a14.68 14.68 0 0 1 2-1.85c-9.76 2.78-23.64 1.68-36.42 1.94-7.32.17-14.3.42-19.77 3.36C2.19 65.05.76 66.9.76 68.59a.39.39 0 0 0 .5.42c.42-.25.34 0 .34.08-.08.42-.93.76-1.26.42-.59-.59-.67-3.11 2.52-5.3 5.64-3.87 13.71-4.54 22.21-4.71 14.47-.42 30.28 1.09 38.44-2.94.25-.17.42-.34.59-.42a1 1 0 0 1 1.18.08c.25.25.25.34-.25.76a71.12 71.12 0 0 0-5.38 5h.42a15.53 15.53 0 0 0 4.29-.84c.76-.25.76-.25 1.85-1.35a13.15 13.15 0 0 1 3.11-2.44c1.35-.84 2.1-1.18 2.61-.93.34.17.34.25-.17.84a15.69 15.69 0 0 1-3 2.19 10.58 10.58 0 0 0-2.69 2.44c-2.36 2.52-8.5 9.09-6.48 10.26 3.45 2.1 18.84-9.59 22-11.61-.01-.01.42.24.33.33ZM71.15 57.5c.17-.17.34-.34.25-.42a17.88 17.88 0 0 0-2.61 2.1c-.16.34 1.79-1.09 2.36-1.68Z"/><path d="M127.35 60.87c-9.08 5.72-22.46 13.46-27.17 7.49-5.38 2.19-9.51 3.11-12.45 3a6.36 6.36 0 0 1-2.69-.59c-2.27-1.09-2.44-3.79-.93-6.73a11 11 0 0 1 1.77-3c.93-1 3.11-3.28 3.37-3.62 0 0-1.26 1.35-2.86 2.86a54 54 0 0 1-6.65 5.38c-.5.34-.76.25-1.09-.08-.17-.17-.17-.34 0-.76.34-1.18 2.27-3.87 4.29-5.89 3.2-3.2 5.72-4.71 6.9-4.21a1.21 1.21 0 0 1 .84 1.09v.34c.08-.08.5-.5 1-1.09a6.22 6.22 0 0 1 1-.93c.25 0 .84.5.84.76 0 .42-.84 1.35-4.12 4.54-3.28 3.36-5.47 5.72-5.22 9a1.68 1.68 0 0 0 .17.76 3.06 3.06 0 0 0 2.44 1.68 20.75 20.75 0 0 0 4.37-.25 30.48 30.48 0 0 0 8.75-2.78c-2.69-4-1-11.95 3.28-16.74 2.27-2.52 4.54-3.36 6.14-2.1.93.76 1 2.61-.34 5.64l.76-.67c5.64-5 10.35-6.48 10.09-3.53-.67 6.73-11 13.71-18.84 17.58 3.36 5.38 16.82-1.6 26.08-7.49Zm-37.52-5.13c-.08-.25-.25-.25-1.18.25-1.94.93-5.38 4-7.49 6.56a28.7 28.7 0 0 0-1.77 2.61l.59-.25a73.55 73.55 0 0 0 7.49-6.31c2.03-1.94 2.53-2.45 2.36-2.87Zm10.85 11.78a50.81 50.81 0 0 0 14.3-9.76c2.44-2.44 3.7-4.46 4.12-6.31.17-1 .08-1.85-.34-1.93-.67-.17-3.28.93-5.72 2.78a56 56 0 0 0-5.8 5.22 7 7 0 0 1-.93.76l-.34-.08c-.42-.08-.17-.5.59-1.26 2.19-2.27 3.79-6.48 2-7.74-1-.76-3.62 1.43-4.88 2.94-2.57 3.34-5.6 10.66-2.99 15.37Z"/><path d="M123.74 65.92c.67-4.21 4.54-7.23 8.24-9.51a12 12 0 0 1 4.21-1.51c.84 0 2.27.59 1.85 1.6a10.3 10.3 0 0 1-2.94 3.87c-.34-.17-.08-.34.17-.67 2.44-2.52 2.61-3.87 1.93-3.87-1 0-3.79 1.35-6.06 3-3.87 2.94-6 5.72-6.31 8.24-.42 3.62 3.7 2.27 8.41-.42 3.53-2 6.9-4.46 9.51-6.31.25-.17.34.34.34.34-1.68 1.18-2.52 1.85-4.79 3.36-4.79 3.11-9.59 6.23-12.53 5.64-1.61-.32-2.29-2-2.03-3.76Z"/><path d="M138.21 66.84a10.73 10.73 0 0 0 1.09-1.6c4-6.31 5.13-7.57 10.77-14.38 3.87-4.37 7.15-7.23 9.17-8.08s2.78.08 1.93 1.85c-1.77 4.12-9.25 11.27-15.23 13.63-.34.17-.5.17-1.85 1.93-1.6 2-3.28 4.37-3.28 4.46l.76-.67a32.32 32.32 0 0 1 5-4.12c1.77-1.18 3.37-2.19 4.12-1.68 1.26.84-.42 3.62-1.51 5.13 3.11-.42 7.82-.42 11.27-2.94l.17.42c-3.28 2.44-7.66 2.36-11.78 3-4.37 5.47-8.58 8.5-10.6 7.49-1.3-.74-1.3-2.68-.03-4.44Zm9.08-2.78c-1.6.34-5.21 1.26-6 1.51s-.92.42-1.18.84l-.84 1.26-.42.93c0 .08-.08.08-.17.25-.25 0-.42-.17-.59-.08s-.34 1.26-.08 1.6c1 1.35 3.53-.59 5.72-2.61a46.17 46.17 0 0 0 3.56-3.7Zm.42-.59c1.26-1.85 2.61-4 2.69-4.63.08-.17.08-.34-.25-.25a15.28 15.28 0 0 0-4 2.1 33 33 0 0 0-5 4.46c2.1-.67 6.65-1.68 6.56-1.68Zm12.28-17.55a5.6 5.6 0 0 0 1-2.69c0-.25-1.26.17-2.44 1a55.26 55.26 0 0 0-6.9 6.81c-1.18 1.35-5.3 6.48-5.55 6.73 2.54-.94 10.28-6.16 13.89-11.85Z"/><path d="M166.05 59.35c.93-1 1.51-1.6 1.77-1.94 0 0-1.26 1.35-2.86 2.86a53.94 53.94 0 0 1-6.65 5.38c-.5.34-.76.25-1.09-.08-.17-.17-.17-.34 0-.76.34-1.18 2.27-3.87 4.29-5.89 3.2-3.2 5.72-4.71 6.9-4.21a1.21 1.21 0 0 1 .84 1.09v.34c.08-.08.5-.5 1-1.09a6.23 6.23 0 0 1 1-.93c.25 0 .84.5.84.76 0 .42-.84 1.35-4.12 4.54-3.45 3.53-8.16 8.75-7.4 10.35.34.67 2.44-.34 4.79-1.77 2.61-1.6 8-5.55 11.1-7.57l.17.42c-4.21 3-5.47 3.87-6.56 4.63-6.81 4.71-9.34 5.89-10.18 4.37-1.07-1.83 3.3-7.13 6.16-10.5Zm-7.47 5.57a73.62 73.62 0 0 0 7.49-6.31c2-1.93 2.52-2.44 2.36-2.86-.08-.25-.25-.25-1.18.25-1.93.93-5.38 4-7.49 6.56a28.7 28.7 0 0 0-1.77 2.61Z"/><path d="M148.05 90.31c.93-2.61 3.2-5.38 6.73-8 2.1-1.6 3.62-2.52 15.81-9.17.17-.08 5.22-6.39 6-7.23l-.67.42c-.67.42-1.77 1.09-2.27.84-1.6-.84-.34-3.79 2.78-7 1.93-2 4.63-3.7 6.39-3.79 1.09 0 1.85.5 1.68 1.35l-.08.42.93-.59a4.88 4.88 0 0 1 1.85-.84c.34 0 .84.42.84.67s-.17.34-.34.17-1.18.42-2.44 1.43a61.29 61.29 0 0 0-5.38 5.3c-1.51 1.6-6.23 7.15-6.39 7.4 5.47-3 15.14-8.08 19.85-11.36.08-.08.34.25.25.34-4.79 3.45-10.35 6.31-20.86 11.95-10.18 12.53-18 22.21-22.12 22.63-2.56.19-3.4-2.5-2.56-4.94Zm7.74.17c1.51-1.43 12.45-14.22 14.3-16.49-.17 0-7.15 3.87-9.59 5.3-4.88 2.86-8.24 5.38-10.43 8.24s-2.52 7-.25 7c1.76-.02 4.12-2.29 5.97-4.05Zm21-25.24c1.09-.67 1.6-1.35 4.12-3.87 1.6-1.6 2.86-2.94 2.94-3 .34-.42.42-1.09-.25-1.09-.84 0-2.1.84-4.21 2.78-1.43 1.26-5.3 5-5.3 6.31 0 .17.08.34.25.34a10.49 10.49 0 0 0 2.48-1.47Z"/><path d="M191.37 61.92c1.26-1.26 2.52-2.52 3.87-3.79 1.51-1.6 2.27-2.19 2.86-2.36.34-.17.42-.17.59-.08.34.17.34.34.17.59s-.34.5-.42.34c-.08.08-3.87 3.87-4.46 4.37l-.42.34.5-.17 1.18-.5c1.26-.5 1.93-.67 2.61-.25a.77.77 0 0 1 .25.67c.08 1.09-1 2.1-2.35 3.45l-.5.5c4.46-.93 7.15-2.52 10.43-4.54l-.08.59c-5.55 3.36-8.83 4.12-10.6 4.37a7.86 7.86 0 0 0-1.35.34c-2.1 1-4.12 1.35-4-.67a4.91 4.91 0 0 1 1.72-3.2Zm1.26 3.36c-.92-.5-1-.84-1-1.43-.25-.17-1.26 1.51-1.26 1.94 0 .08.17.08.34.08.41-.13 2.09-.55 1.92-.63Zm.59-.08.84-.59a15.36 15.36 0 0 0 2.44-1.85c.5-.59 1-1.43.92-1.85 0-.25-.08-.34-.42-.25a7.67 7.67 0 0 0-2.78 1.18c-1.93 1.18-2.36 1.6-2.27 2.27 0 .34.42.67.93.93Z"/><path d="M202.06 68.44c-.25-.34-.25-.34-.25-1.09.17-2.36 2.44-6 5.64-8.83 1.85-1.6 2.94-2.36 4-2.52a1.77 1.77 0 0 1 1.93.76c.25.5 0 1.35-.59 2.94l-.34.93a25.53 25.53 0 0 0 2.19-2.61c2.78-3.62 5.47-9.17 6.14-12.7a5.22 5.22 0 0 0-.08-2.86c-.34-.76-1-1-2.1-1.09l-.84-.08-.84.42a11.18 11.18 0 0 0-3.53 2.19c-.76.76-.84.84-.76 1s0 .25-.08.25a1.46 1.46 0 0 1-.59-.76c-.08-.25-.08-.34.08-.76a4.16 4.16 0 0 1 1.77-1.6c3.37-2.19 9.25-4.46 15.73-6.06a102.93 102.93 0 0 1 14-2.61c2-.17 2.86.08 3.45.76.34.42.42 1.18.25 1.18s-.5-.42-.5-.59c0-.34-.25-.5-.76-.59-1.51-.25-7.15.76-13.29 2.27a98.63 98.63 0 0 0-13 4c-1 .42-1.26.59-.84.59a3.14 3.14 0 0 1 2.27 1.6c.67 1.68 0 5.22-2.27 9.67a43.5 43.5 0 0 1-7.91 11.19c-3.36 3.37-6.22 5.47-7.49 5.64a1.56 1.56 0 0 1-1.39-.64Zm8.58-5.64c.92-.93.92-1.09.84-1.26s-.08-.42.42-1.85a10.8 10.8 0 0 0 .59-2.19v-.58l-.5.25a17.69 17.69 0 0 0-4.37 3.36 20.35 20.35 0 0 0-4.54 6.65c-.34 1.18.08 1.43 1.09.93 2.01-1.02 3.94-2.87 6.47-5.31ZM272.21 55.92a10.29 10.29 0 0 1-5.22 3.28c-12.7 3.87-29.11 2.44-48.2 8.5-6.65 8-9.93 12-12.87 15.06-2.44 2.44-5.72 6-9.34 6.65a3.36 3.36 0 0 1-4.21-2.69 7.13 7.13 0 0 1 1.85-5.38c4.21-5.3 10.52-8.83 23.3-14l.84-1.18 1.6-1.93 1.6-1.77-1.18.84a9.14 9.14 0 0 1-3.36 1.77c-.42 0-.76-.08-.76-.59a4.27 4.27 0 0 1 .93-1.85 24.62 24.62 0 0 1 3-3.62c1.93-1.93 2.19-2.1 2.61-1.85s.25.5-1.51 2.36-2.69 2.94-3.37 3.7a4.68 4.68 0 0 0-.84 1.51 9.4 9.4 0 0 0 1.77-.84 36.91 36.91 0 0 0 5.89-4.79 44.78 44.78 0 0 1 4-3.45c.34-.17.42-.17.59-.08s.25.17.25.17a20.47 20.47 0 0 1-2.27 2.36l-3.53 3.62c-1.09 1.09-3.11 3.62-4.54 5.3 20.11-5.89 37.69-5 47.53-8.24a11.35 11.35 0 0 0 4.88-3.11c.56-.61 1.07-.36.56.25Zm-55.18 12.1c-4.12 1.6-14.22 5.89-18.51 9.59-2.52 2-6.65 5.72-5.64 9.34a2.5 2.5 0 0 0 2.36 1.85c1.77 0 3.45-1.18 4.79-2.19 5.8-4.29 10.26-10.35 14.72-15.9Z"/></svg>