<svg xmlns="http://www.w3.org/2000/svg" version="1.0" preserveAspectRatio="xMidYMid meet" viewBox="361.17 82.39 1069.66 441.4">

<g transform="translate(0.000000,664.000000) scale(0.100000,-0.100000)" fill="#000000" stroke="none">
<path d="M10540 5814 c-220 -40 -326 -73 -464 -143 -127 -65 -205 -123 -307 -228 -152 -156 -238 -311 -300 -538 -16 -62 -22 -119 -26 -250 -5 -191 8 -308 52 -460 85 -290 288 -593 540 -806 80 -67 86 -70 130 -67 l46 3 -87 75 c-262 224 -444 523 -518 851 -40 178 -45 414 -11 574 119 565 634 948 1240 922 273 -12 524 -87 702 -208 74 -50 188 -165 234 -235 131 -201 129 -443 -7 -675 -68 -117 -185 -221 -356 -320 -71 -41 -77 -47 -65 -63 13 -17 15 -17 56 3 120 62 278 184 338 263 90 116 144 233 168 361 20 107 19 178 -5 273 -68 269 -279 474 -608 588 -182 63 -271 77 -512 81 -118 2 -226 1 -240 -1z"/>
<path d="M5528 5495 c-461 -63 -896 -250 -1253 -538 -320 -258 -571 -654 -640 -1008 -37 -188 -29 -417 18 -559 l22 -65 89 -3 c72 -2 87 0 78 10 -15 19 -49 112 -69 193 -12 50 -17 111 -17 215 1 244 49 437 166 660 215 413 556 708 1039 900 460 184 1036 211 1411 68 154 -59 301 -181 360 -298 55 -111 56 -260 2 -414 -70 -201 -280 -520 -623 -945 -64 -79 -160 -200 -214 -268 l-97 -123 215 0 215 0 84 113 c423 571 655 1039 656 1324 0 234 -137 450 -373 587 -119 68 -299 125 -477 151 -130 18 -456 18 -592 0z"/>
<path d="M8714 5276 c-171 -54 -426 -275 -711 -617 -318 -382 -583 -778 -836 -1252 l-47 -88 155 3 156 3 172 290 c462 778 755 1207 992 1453 112 117 179 162 240 162 120 0 146 -121 70 -326 -127 -338 -432 -797 -865 -1296 -85 -99 -196 -228 -247 -288 -51 -59 -121 -133 -155 -164 l-63 -57 -7 27 c-17 63 -73 92 -155 79 -57 -8 -135 -80 -152 -140 -22 -77 -24 -139 -6 -200 42 -144 194 -209 367 -155 80 25 142 84 169 162 l18 53 69 -3 c66 -4 71 -2 106 28 40 35 40 37 26 75 l-10 27 -29 -31 c-33 -36 -28 -35 -146 -16 -116 19 -160 19 -194 -1 -37 -22 -50 -45 -44 -77 7 -33 15 -34 47 -2 18 18 36 25 62 25 36 0 37 0 31 -36 -8 -49 -48 -98 -100 -123 -59 -29 -168 -29 -215 -1 -27 17 -72 73 -72 90 0 3 38 25 85 48 179 92 310 205 447 388 29 40 119 150 199 245 216 258 434 531 521 655 162 231 313 509 375 691 31 92 37 121 37 198 1 107 -13 136 -77 166 -49 22 -151 24 -213 5z m-1233 -2146 c26 -15 25 -61 -3 -87 -13 -12 -51 -35 -85 -52 l-63 -31 0 30 c0 97 84 175 151 140z"/>
<path d="M13127 4800 c-562 -59 -1106 -359 -1587 -875 -142 -152 -371 -431 -460 -560 l-31 -45 153 0 154 0 116 168 c281 404 400 554 573 727 307 308 602 462 995 521 168 25 486 25 600 0 386 -84 596 -304 577 -601 -20 -289 -193 -552 -511 -774 l-59 -41 53 0 c50 0 58 4 144 68 102 77 223 197 291 287 180 241 226 556 109 752 -108 180 -319 303 -604 354 -124 23 -386 32 -513 19z"/>
<path d="M12404 4138 c-196 -200 -368 -391 -592 -658 l-130 -155 31 -3 c26 -3 36 2 57 29 199 264 372 460 654 747 178 180 198 204 185 217 -14 14 -36 -5 -205 -177z"/>
<path d="M8620 3543 c-209 -32 -377 -88 -515 -170 l-80 -48 49 -3 c40 -3 61 3 125 36 155 81 326 127 511 138 223 14 494 -53 642 -158 20 -13 40 -18 70 -16 l43 3 -71 47 c-122 82 -273 136 -450 163 -90 14 -262 18 -324 8z"/>
<path d="M4840 3020 l0 -320 53 0 52 0 150 242 150 241 3 -242 2 -241 50 0 50 0 0 304 c0 167 3 311 6 320 5 14 -3 16 -54 16 l-60 0 -148 -240 c-82 -131 -151 -239 -154 -240 -3 0 -4 108 -2 240 l3 240 -51 0 -50 0 0 -320z"/>
<path d="M8365 3328 c-5 -15 -113 -317 -181 -506 l-44 -123 52 3 51 3 21 75 21 75 132 3 131 3 15 -48 c9 -26 19 -63 22 -80 6 -32 8 -33 60 -33 l53 0 -66 203 c-35 111 -81 254 -101 317 l-37 115 -62 3 c-44 2 -64 -1 -67 -10z m113 -239 c23 -74 42 -138 42 -142 0 -4 -45 -7 -101 -7 -77 0 -100 3 -97 13 3 6 27 74 53 150 27 75 52 134 55 130 4 -5 25 -69 48 -144z"/>
<path d="M10012 3195 c-81 -23 -128 -65 -152 -140 -15 -44 -18 -140 -7 -196 11 -56 61 -118 115 -142 57 -25 159 -27 213 -4 33 13 37 20 41 57 3 38 2 41 -17 35 -77 -25 -121 -34 -144 -28 -84 20 -113 66 -113 179 0 87 20 130 72 157 40 21 113 16 162 -9 17 -9 31 -14 33 -12 2 2 7 22 11 45 6 39 5 41 -27 52 -56 19 -131 22 -187 6z"/>
<path d="M11323 3200 c-58 -12 -95 -33 -131 -74 -41 -47 -55 -103 -50 -203 4 -69 9 -89 34 -129 53 -86 165 -119 285 -85 44 12 47 16 53 53 4 23 4 43 1 46 -2 3 -23 -3 -46 -13 -55 -25 -131 -25 -167 1 -43 32 -62 80 -62 159 0 85 21 132 71 158 40 21 109 18 159 -8 18 -9 34 -14 37 -12 2 3 7 24 10 46 5 36 3 42 -19 50 -39 15 -129 20 -175 11z"/>
<path d="M5535 2950 l0 -250 106 0 c180 0 248 34 257 128 5 60 -16 98 -67 119 l-35 15 25 14 c48 25 68 118 36 168 -29 43 -75 56 -204 56 l-118 0 0 -250z m199 170 c36 -13 48 -41 35 -79 -14 -39 -35 -51 -93 -51 l-46 0 0 70 0 70 39 0 c22 0 51 -4 65 -10z m45 -224 c31 -28 28 -79 -5 -105 -20 -16 -41 -21 -84 -21 l-58 0 -4 48 c-1 26 -2 60 0 76 l4 28 63 -4 c44 -3 70 -10 84 -22z"/>
<path d="M6055 2963 c-49 -131 -90 -244 -93 -250 -3 -9 9 -13 41 -13 39 0 47 3 52 23 3 12 11 39 17 60 l11 37 107 0 107 0 13 -47 c6 -27 14 -54 16 -60 5 -18 97 -18 92 0 -2 8 -39 120 -83 250 l-80 237 -56 0 -57 0 -87 -237z m180 37 c19 -57 33 -105 31 -107 -2 -2 -37 -3 -78 -1 l-75 3 40 108 c22 59 42 106 44 104 2 -2 19 -50 38 -107z"/>
<path d="M6525 2950 l0 -250 48 0 47 0 0 105 0 105 120 0 120 0 0 -105 0 -105 48 0 48 0 2 250 2 250 -50 0 -50 0 0 -105 0 -105 -120 0 -120 0 0 105 0 105 -47 0 -48 0 0 -250z"/>
<path d="M8805 2950 l0 -250 48 0 47 0 0 105 0 105 120 0 120 0 0 -105 0 -105 48 0 48 0 2 250 2 250 -50 0 -50 0 0 -105 0 -105 -120 0 -120 0 0 105 0 105 -47 0 -48 0 0 -250z"/>
<path d="M9502 3148 c-11 -29 -52 -138 -91 -242 -39 -104 -71 -193 -71 -197 0 -5 20 -9 43 -9 l44 0 16 60 17 60 105 0 105 0 11 -27 c6 -16 13 -43 16 -60 5 -32 7 -33 54 -33 27 0 49 3 48 8 0 4 -37 115 -82 247 l-82 240 -57 3 -56 3 -20 -53z m113 -150 l34 -103 -76 -3 c-41 -2 -77 -1 -79 1 -3 2 2 19 9 38 8 19 27 67 42 107 15 40 29 71 32 69 2 -3 20 -52 38 -109z"/>
<path d="M10287 3193 c-4 -3 -7 -21 -7 -40 l0 -33 76 0 76 0 -4 -210 -3 -210 48 0 47 0 0 210 0 210 70 0 70 0 0 40 0 40 -183 0 c-101 0 -187 -3 -190 -7z"/>
<path d="M10725 2963 c-48 -131 -90 -244 -93 -251 -3 -10 7 -12 44 -10 47 3 48 4 56 41 16 76 17 77 132 77 l103 0 13 -47 c6 -27 14 -54 16 -60 4 -14 94 -19 94 -5 0 4 -37 116 -82 250 l-83 242 -56 0 -56 0 -88 -237z m179 47 c15 -47 29 -93 32 -102 5 -16 -3 -18 -70 -18 -42 0 -76 4 -76 9 0 24 74 211 80 204 5 -4 20 -46 34 -93z"/>
<path d="M11650 2950 l0 -250 53 0 52 0 117 178 118 177 0 -177 0 -178 50 0 50 0 0 250 0 250 -54 0 -53 0 -113 -171 c-63 -93 -117 -172 -122 -175 -4 -3 -5 74 -1 170 l6 176 -51 0 -52 0 0 -250z"/>
<path d="M12323 3179 c-104 -51 -119 -178 -31 -253 l41 -36 -58 -75 c-31 -41 -61 -78 -66 -81 -20 -12 -7 -23 38 -32 26 -6 51 -8 55 -6 4 3 31 43 59 90 l52 84 44 0 43 0 0 -85 0 -85 45 0 45 0 0 250 0 250 -112 0 c-94 0 -120 -3 -155 -21z m175 -141 l3 -88 -56 0 c-71 0 -105 28 -105 88 0 63 37 93 110 89 l45 -2 3 -87z"/>
<path d="M5286 2528 c-80 -173 -111 -310 -104 -461 6 -123 25 -173 95 -248 87 -94 199 -132 383 -132 89 0 137 6 215 26 190 47 430 172 685 355 l115 83 6 -108 c8 -148 28 -203 98 -274 38 -38 75 -63 116 -80 56 -22 73 -24 235 -23 162 0 182 2 265 28 50 15 136 51 192 81 l103 54 47 -51 c235 -253 673 -394 1163 -374 264 11 421 38 649 112 318 103 559 256 844 534 82 80 189 192 236 250 92 111 241 305 241 315 0 3 -73 5 -163 5 l-163 0 -39 -52 c-116 -157 -316 -390 -440 -514 -330 -330 -612 -499 -962 -575 -143 -30 -462 -38 -605 -14 -277 46 -495 149 -638 301 -31 33 -66 73 -78 90 l-22 32 39 25 c63 42 249 207 355 316 54 56 100 100 101 99 1 -2 14 -29 28 -61 33 -73 121 -166 195 -205 83 -44 154 -62 267 -68 296 -17 617 121 794 342 58 72 151 239 151 271 0 8 -13 13 -39 13 -38 0 -39 -1 -59 -57 -37 -99 -94 -185 -187 -279 -137 -139 -264 -204 -459 -239 -165 -28 -324 -12 -437 45 -92 48 -179 154 -209 257 -7 23 -20 45 -28 48 -10 4 -70 -48 -181 -158 -138 -135 -291 -268 -349 -301 -15 -9 -61 89 -88 189 -15 56 -19 106 -19 250 0 99 3 195 7 213 l7 32 -58 0 c-52 0 -59 -3 -66 -22 -14 -46 -18 -308 -5 -386 15 -95 59 -218 101 -284 37 -58 44 -49 -86 -113 -150 -74 -226 -97 -346 -102 -116 -6 -149 4 -195 55 -81 92 -79 310 6 574 l37 116 84 81 84 80 -39 1 c-23 0 -47 -7 -58 -17 -17 -15 -18 -15 -18 0 0 15 -17 17 -144 17 l-145 0 -35 -107 c-19 -60 -42 -146 -53 -192 l-18 -84 -80 -62 c-206 -161 -455 -312 -610 -370 -143 -54 -298 -69 -370 -36 -49 22 -68 43 -94 101 -63 144 -19 352 137 654 l49 96 -199 0 -199 0 -43 -92z"/>
<path d="M11137 2543 c-122 -212 -201 -394 -228 -528 -23 -110 -24 -173 -4 -250 39 -148 124 -212 297 -222 206 -12 393 76 673 316 87 75 254 245 322 328 32 39 35 46 21 59 -14 14 -27 3 -124 -107 -110 -123 -248 -253 -356 -334 -172 -130 -411 -188 -531 -131 -64 32 -107 134 -107 259 0 138 60 366 147 562 24 55 47 106 50 113 4 9 -11 12 -55 12 l-60 0 -45 -77z"/>
</g>
</svg>