<svg xmlns="http://www.w3.org/2000/svg" width="1001.333" height="1001.333" version="1.0" viewBox="0 0 751 751"><path d="M347 209.2c-2.5 1.3-28.1 22.3-56.9 46.8l-52.4 44.5-31.1.5-31.1.5-5.9 2.9c-7.6 3.7-13.5 9.6-17.2 17.2l-2.9 5.9V375c0 46.6 0 47.6 2.2 52.2 2.5 5.5 9.3 13.1 14.6 16.5 7.3 4.6 12.9 5.3 43.2 5.3h28.1l51 41.6c28 22.9 52.8 43.4 55.2 45.6 6.6 6.1 12.2 8.1 20.3 7.6 5-.4 8-1.3 11.5-3.3 7-4.1 13.2-10.2 16.2-16l2.7-5v-289l-2.7-5.2c-6.4-12-15.7-17.5-30.8-18.1-8.4-.3-10-.1-14 2zm17.8 28c1.5 1.5 1.7 272.4.3 274.7-.5.8-1.5 1.1-2.3.8-.8-.3-26.2-20.7-56.4-45.5-30.3-24.7-56.1-45.5-57.4-46.3-2-1.1-9.3-1.4-34.8-1.4h-32.4l-1.9-2.4c-1.8-2.2-1.9-4.4-1.9-42.4 0-39.8 0-40.1 2.2-42.4l2.1-2.3h31.8c21.6 0 32.6-.4 34.3-1.1 1.4-.7 26.7-21.8 56.3-47 54.4-46.3 56.8-48 60.1-44.7zM461.4 297.1c-1.8.5-4.6 2.5-6.3 4.4-2.6 3-3.1 4.4-3.1 8.6 0 2.8.5 6 1.1 7.2.6 1.2 12.8 13.9 27 28.2l25.9 26-26.5 26.5c-21.3 21.3-26.7 27.2-27.6 30.2-2.9 10.8 7.9 21.3 18.3 17.9 2.3-.7 11.7-9.5 29.8-27.6l26.5-26.5 27 26.9c30.1 30 30.1 30 39.1 26.6 7-2.7 10.8-10.6 8.5-17.7-.7-2.3-9.3-11.5-27.1-29.3-14.3-14.3-26-26.4-26-27 0-.5 11.9-12.9 26.4-27.5 22.6-22.6 26.5-27 27.1-30.2 2-10.5-7.7-19.5-18-16.7-3.3.9-8.6 5.6-30.5 27.5L526.5 351 500 324.5c-29.3-29.3-30.1-29.9-38.6-27.4z"/></svg>