<?xml version="1.0" encoding="UTF-8"?> <svg xmlns="http://www.w3.org/2000/svg" id="Слой_1" data-name="Слой 1" viewBox="0 0 418.03 418.03"><defs><style>.cls-1{fill:none;stroke-width:8px;}.cls-1,.cls-2{stroke:#000;stroke-miterlimit:10;}.cls-2{stroke-width:3px;}</style></defs><title>замочек 2 открыто</title><circle class="cls-1" cx="209.02" cy="209.02" r="205.02"></circle><path class="cls-2" d="M597.76,954.25A14.11,14.11,0,0,0,594,982v26.76a3.75,3.75,0,1,0,7.5,0V982a14.11,14.11,0,0,0-3.75-27.71Z" transform="translate(-388.75 -734.11)"></path><path class="cls-2" d="M657.52,903.95a25.74,25.74,0,0,1-8-.09q-2.3.13-4.61.21c-1.19.06-2.39.11-3.58.13a5.33,5.33,0,0,1-1.71-.24H549.4V847.73a46.12,46.12,0,0,1,46.07-46.07h4.61a45.88,45.88,0,0,1,31.48,12.49c.9-.55,1.81-1.08,2.73-1.6.36-.6.7-1.22,1.05-1.83a51,51,0,0,0-35.26-14.17h-4.61a51.23,51.23,0,0,0-51.18,51.18v56.22h-28v163h163v-163Zm16.62,157.87H521.38V909.06H674.15Z" transform="translate(-388.75 -734.11)"></path></svg> 