<svg xmlns="http://www.w3.org/2000/svg" width="1001.333" height="1001.333" version="1.0" viewBox="0 0 751 751"><path d="M369.4 208.5c-2.7 1-22 16.8-57.7 47l-53.6 45.4-30.8.3-30.8.3-5.7 2.7c-7 3.3-14.5 10.6-17.8 17.3l-2.5 5v97l2.3 4.7c3.7 7.4 9.6 13.4 17 17l6.7 3.3 30.8.3 30.9.3 54.5 44.7c30 24.6 56.1 45.8 58.1 47.2 3.1 2.2 4.6 2.5 12.1 2.5 7.7 0 9.1-.3 13.5-2.9 7.5-4.4 13.3-10.2 16.3-16.5l2.8-5.6v-286l-3.3-6.7c-5.9-12-15.7-18-30.2-18.5-5.7-.2-9.8.2-12.6 1.2zm16 29.1c1.4 1.4 1.6 15.2 1.6 137.4 0 121-.2 136-1.5 137.4-1.7 1.7 4.6 6.6-77.3-60.4-26.8-21.9-38.5-30.9-41.5-31.8-3.3-1-10.5-1.2-33.2-.7-28.8.7-29 .7-31.7-1.5l-2.8-2.1v-40.7c0-40.3 0-40.6 2.2-42.9l2.1-2.3h32.2c32 0 32.2 0 35.6-2.3 2.9-2 57.3-47.8 96.4-81.4 12.2-10.4 14.9-11.7 17.9-8.7zM506.4 226.4c-6.4 2.8-9.7 10.5-7.5 17.4.6 2.1 3.9 6.6 7.5 10.5 45.7 48.1 59 120.2 33.7 182.1-7.9 19.2-18.8 36.3-33.2 52.1-8.3 9.1-9.7 12.3-8.5 18.9.9 4.6 5.3 9.1 10.4 10.7 8.7 2.6 16.3-3.4 33.4-26.2 49-65 52.9-156.5 9.8-226.1-9.7-15.6-27.1-36.2-33.1-39.4-3.5-1.7-8.4-1.7-12.5 0z"/><path d="M470.5 287c-5.9 2.4-9.8 10.8-8.1 17.3.3 1.4 3.8 6.2 7.7 10.8 7.8 9.2 15.5 23.8 18.6 34.9 2.8 10.3 2.5 34-.5 44.5-3.7 12.9-13.2 29.5-20.7 36.5-9.7 9-6.1 24.4 6.4 26.5 8 1.3 15.7-4.7 27-21.3 22.7-33.5 25.6-80.5 7.1-116.6-7-13.6-19-29-25.2-32.2-3-1.5-9.1-1.8-12.3-.4z"/></svg>